MarkerMocapFLsDeGroote.mot
version=1
nRows=23
nColumns=39
inDegrees=no
endheader
time	tibant_l	tibpost_l	gasmed_l	gaslat_l	soleus_l	edl_l	ehl_l	fdl_l	fhl_l	perbrev_l	perlong_l	bflh_l	bfsh_l	recfem_l	semimem_l	semiten_l	vasint_l	vaslat_l	vasmed_l	tibant_r	tibpost_r	gasmed_r	gaslat_r	soleus_r	edl_r	ehl_r	fdl_r	fhl_r	perbrev_r	perlong_r	bflh_r	bfsh_r	recfem_r	semimem_r	semiten_r	vasint_r	vaslat_r	vasmed_r
25.49000000	0.37215384	0.38160943	0.52902314	0.51952614	0.38171607	0.51011137	0.47013057	0.49661266	0.46201536	0.23655275	0.47087127	0.42942232	0.23219802	0.47614683	0.42159366	0.47441096	0.28198124	0.29482990	0.27107297	0.35863830	0.38553424	0.54433750	0.53405335	0.39606271	0.49886935	0.45836409	0.50020647	0.46740166	0.23942002	0.47415580	0.39593194	0.23006539	0.50211268	0.39278390	0.43964788	0.28642279	0.29907182	0.27545965
25.50000000	0.37211797	0.38162279	0.52909654	0.51990785	0.38176056	0.51008100	0.47009884	0.49662523	0.46203315	0.23656154	0.47088107	0.42978710	0.23285482	0.47531036	0.42200277	0.47488771	0.28053084	0.29350481	0.26965263	0.35824099	0.38562040	0.54469255	0.53430750	0.39641743	0.49854345	0.45802266	0.50028195	0.46752534	0.23949221	0.47424098	0.39547324	0.22978369	0.50276675	0.39219937	0.43899150	0.28697815	0.29961933	0.27601081
25.51000000	0.37183874	0.38172613	0.52946508	0.52049762	0.38210564	0.50984472	0.46985198	0.49672241	0.46217091	0.23662971	0.47095716	0.43000589	0.23328781	0.47484426	0.42218172	0.47510015	0.27955645	0.29263341	0.26870312	0.35784672	0.38570446	0.54503359	0.53453989	0.39676595	0.49822024	0.45768406	0.50035536	0.46764635	0.23956323	0.47432493	0.39498874	0.22947161	0.50346904	0.39157319	0.43828676	0.28758516	0.30022152	0.27661364
25.52000000	0.37139159	0.38188936	0.53004094	0.52120587	0.38265353	0.50946679	0.46945708	0.49687572	0.46238881	0.23673800	0.47107821	0.43005379	0.23352916	0.47472297	0.42214799	0.47506446	0.27900795	0.29214991	0.26817052	0.35746992	0.38578345	0.54534615	0.53473664	0.39709581	0.49791150	0.45736062	0.50042414	0.46776042	0.23963054	0.47440461	0.39448183	0.22913273	0.50421252	0.39090814	0.43753904	0.28823467	0.30086999	0.27725905
25.53000000	0.37091282	0.38206108	0.53065231	0.52187424	0.38323378	0.50906275	0.46903480	0.49703672	0.46261849	0.23685276	0.47120675	0.42989792	0.23362348	0.47490086	0.42190983	0.47478639	0.27879271	0.29196161	0.26796193	0.35712530	0.38585456	0.54561670	0.53489372	0.39739475	0.49762927	0.45706496	0.50048586	0.46786341	0.23969161	0.47447701	0.39395404	0.22877097	0.50499114	0.39020584	0.43675256	0.28891714	0.30155565	0.27793752
25.54000000	0.37056561	0.38218369	0.53109332	0.52232018	0.38365053	0.50877010	0.46872890	0.49715150	0.46278275	0.23693523	0.47129929	0.42953210	0.23362407	0.47530206	0.42149352	0.47429404	0.27879136	0.29196043	0.26796062	0.35682618	0.38591541	0.54583286	0.53499265	0.39765210	0.49738441	0.45680845	0.50053853	0.46795176	0.23974424	0.47453950	0.39340639	0.22838955	0.50579955	0.38946853	0.43593162	0.28962484	0.30227092	0.27864125
25.55000000	0.37049191	0.38220950	0.53118655	0.52241421	0.38373854	0.50870803	0.46866402	0.49717565	0.46281737	0.23695266	0.47131886	0.42904641	0.23362380	0.47573366	0.42101995	0.47372889	0.27879198	0.29196097	0.26796122	0.35658316	0.38596425	0.54598528	0.53499043	0.39785975	0.49718555	0.45660012	0.50058070	0.46802284	0.23978675	0.47459003	0.39284139	0.22799061	0.50663200	0.38870055	0.43508195	0.29035226	0.30301025	0.27936465
25.56000000	0.37076777	0.38211250	0.53083750	0.52204474	0.38340830	0.50894045	0.46890697	0.49708488	0.46268734	0.23688729	0.47124548	0.42839568	0.23359242	0.47627304	0.42043162	0.47302143	0.27886364	0.29202358	0.26803064	0.35640199	0.38600031	0.54606876	0.53480569	0.39801372	0.49703733	0.45644486	0.50061179	0.46807542	0.23981830	0.47462756	0.39226374	0.22757524	0.50748210	0.38790832	0.43421087	0.29109611	0.30377014	0.28010427
25.57000000	0.37138660	0.38189116	0.53004684	0.52123010	0.38265961	0.50946258	0.46945267	0.49687741	0.46239122	0.23673920	0.47107956	0.42765458	0.23356322	0.47683042	0.41980132	0.47225806	0.27893028	0.29208187	0.26809522	0.35628481	0.38602349	0.54608219	0.53454797	0.39811293	0.49694147	0.45634445	0.50063173	0.46810925	0.23983863	0.47465177	0.39167962	0.22714316	0.50834395	0.38709877	0.43332567	0.29185556	0.30454954	0.28085913
25.58000000	0.37227752	0.38156325	0.52889152	0.52005172	0.38156237	0.51021610	0.47023998	0.49656919	0.46195386	0.23652239	0.47083743	0.42687076	0.23354514	0.47737139	0.41916561	0.47148298	0.27897151	0.29211798	0.26813519	0.35623700	0.38603290	0.54601974	0.53421164	0.39815331	0.49690238	0.45630349	0.50063983	0.46812301	0.23984691	0.47466163	0.39109566	0.22669291	0.50921266	0.38627816	0.43243266	0.29263170	0.30534925	0.28163011
25.59000000	0.37333223	0.38116045	0.52749778	0.51863709	0.38023322	0.51111108	0.47117471	0.49618928	0.46141868	0.23626009	0.47054572	0.42606983	0.23353840	0.47789019	0.41853729	0.47071257	0.27898690	0.29213146	0.26815011	0.35627267	0.38602588	0.54586736	0.53378209	0.39812318	0.49693155	0.45633405	0.50063379	0.46811274	0.23984073	0.47465427	0.39051782	0.22622249	0.51008441	0.38545126	0.43153674	0.29342629	0.30617075	0.28241873
25.60000000	0.37442284	0.38072658	0.52602678	0.51714509	0.37882347	0.51204007	0.47214449	0.49577859	0.46084460	0.23598223	0.47023818	0.42525622	0.23353957	0.47840107	0.41790896	0.46993908	0.27898421	0.29212910	0.26814750	0.35641236	0.38599826	0.54560433	0.53323854	0.39800493	0.49704581	0.45645374	0.50061002	0.46807242	0.23981649	0.47462541	0.38995128	0.22573043	0.51095536	0.38462187	0.43064240	0.29423978	0.30701413	0.28322520
25.61000000	0.37542402	0.38031207	0.52464829	0.51574909	0.37749679	0.51289624	0.47303779	0.49538489	0.46029825	0.23572103	0.46995044	0.42442050	0.23354393	0.47892906	0.41726080	0.46913956	0.27897427	0.29212040	0.26813787	0.35667769	0.38594531	0.54520856	0.53255960	0.39777914	0.49726289	0.45668115	0.50056436	0.46799527	0.23977024	0.47457040	0.38940094	0.22521648	0.51182062	0.38379381	0.42975484	0.29507044	0.30787709	0.28404754
25.62000000	0.37624127	0.37996168	0.52350325	0.51458809	0.37639009	0.51359767	0.47376928	0.49505115	0.45983791	0.23550334	0.46971164	0.42354942	0.23354720	0.47949892	0.41657124	0.46828843	0.27896681	0.29211386	0.26813063	0.35708993	0.38586180	0.54465735	0.53172361	0.39742528	0.49760031	0.45703462	0.50049213	0.46787390	0.23969785	0.47448442	0.38887215	0.22468156	0.51267437	0.38297201	0.42888093	0.29591523	0.30875601	0.28488253
25.63000000	0.37682391	0.37970504	0.52267582	0.51374699	0.37558776	0.51409919	0.47429210	0.49480619	0.45950156	0.23534561	0.46953918	0.42263396	0.23354670	0.48012678	0.41582533	0.46736807	0.27896797	0.29211488	0.26813176	0.35766909	0.38574186	0.54392696	0.53070766	0.39692184	0.49807468	0.45753157	0.50038795	0.46770032	0.23959503	0.47436255	0.38836977	0.22412592	0.51351138	0.38216153	0.42802714	0.29677269	0.30964881	0.28572853
25.64000000	0.37715877	0.37955489	0.52219609	0.51325659	0.37512152	0.51438800	0.47459310	0.49466267	0.45930509	0.23525399	0.46943923	0.42167372	0.23354169	0.48081570	0.41501976	0.46637507	0.27897938	0.29212488	0.26814282	0.35842956	0.38557969	0.54299611	0.52948899	0.39624951	0.49869810	0.45818469	0.50024632	0.46746686	0.23945803	0.47420063	0.38789692	0.22354624	0.51432954	0.38136541	0.42719636	0.29764666	0.31055891	0.28658917
25.65000000	0.37726068	0.37950881	0.52204978	0.51310314	0.37497887	0.51447599	0.47468478	0.49461860	0.45924483	0.23522596	0.46940868	0.42067678	0.23353331	0.48155554	0.41416334	0.46532103	0.27899849	0.29214162	0.26816135	0.35937543	0.38537044	0.54184905	0.52804824	0.39539520	0.49947448	0.45899805	0.50006235	0.46716755	0.23928442	0.47399616	0.38745437	0.22293392	0.51513138	0.38058117	0.42638571	0.29854823	0.31149721	0.28747517
25.66000000	0.37716536	0.37955192	0.52218683	0.51323780	0.37511230	0.51439369	0.47459903	0.49465983	0.45930120	0.23525218	0.46943725	0.41965638	0.23352395	0.48232696	0.41327345	0.46422806	0.27901982	0.29216032	0.26818203	0.36050078	0.38511036	0.54047637	0.52637090	0.39435230	0.50039967	0.45996729	0.49983195	0.46679827	0.23907315	0.47374840	0.38704141	0.22227623	0.51592291	0.37980148	0.42558621	0.29949315	0.31247934	0.28840172
25.67000000	0.37692052	0.37966192	0.52253809	0.51359096	0.37545363	0.51418248	0.47437891	0.49476499	0.45944512	0.23531925	0.46951041	0.41862681	0.23351640	0.48310716	0.41237080	0.46312211	0.27903704	0.29217542	0.26819873	0.36179423	0.38479606	0.53880011	0.52444597	0.39311741	0.50146524	0.46108351	0.49955127	0.46635564	0.23882385	0.47345748	0.38665791	0.22155930	0.51671059	0.37901978	0.42478166	0.30049679	0.31352030	0.28938351
25.68000000	0.37657389	0.37981588	0.52303246	0.51409155	0.37593342	0.51388383	0.47406762	0.49491203	0.45964674	0.23541355	0.46961341	0.41760089	0.23351282	0.48387479	0.41147519	0.46202768	0.27904519	0.29218257	0.26820663	0.36324160	0.38442424	0.53669004	0.52226599	0.39168869	0.50266062	0.46233555	0.49921640	0.46583646	0.23853647	0.47312399	0.38630537	0.22077063	0.51749894	0.37822979	0.42396119	0.30157039	0.31463049	0.29043112
25.69000000	0.37616323	0.37999562	0.52361380	0.51468288	0.37649671	0.51353058	0.47369934	0.49508351	0.45988244	0.23552430	0.46973460	0.41658923	0.23351411	0.48461289	0.41060319	0.46096497	0.27904225	0.29218000	0.26820379	0.36482458	0.38399230	0.53432377	0.51983029	0.39006795	0.50397200	0.46370878	0.49882405	0.46523863	0.23821167	0.47274937	0.38598623	0.21990041	0.51828948	0.37742666	0.42311666	0.30271932	0.31581402	0.29154931
25.70000000	0.37571383	0.38018908	0.52424466	0.51532651	0.37710681	0.51314471	0.47329695	0.49526783	0.46013651	0.23564430	0.46986617	0.41560070	0.23351974	0.48530997	0.40976744	0.45994916	0.27902942	0.29216874	0.26819134	0.36651913	0.38349928	0.53171018	0.51714870	0.38826367	0.50538091	0.46518369	0.49837244	0.46456229	0.23785139	0.47233658	0.38570320	0.21894252	0.51907992	0.37660841	0.42224342	0.30394226	0.31706838	0.29273617
25.71000000	0.37524196	0.38038863	0.52490110	0.51599736	0.37774039	0.51274030	0.47287512	0.49545770	0.46039901	0.23576897	0.47000316	0.41464366	0.23352823	0.48595971	0.40897688	0.45899072	0.27901008	0.29215178	0.26817258	0.36829481	0.38294689	0.52887128	0.51424463	0.38629350	0.50686356	0.46673512	0.49786234	0.46381104	0.23745933	0.47189056	0.38545830	0.21789556	0.51986295	0.37577705	0.42134162	0.30523056	0.31838360	0.29398267
